<svg width="4598" height="1514" viewBox="0 0 4598 1514" fill="none" xmlns="http://www.w3.org/2000/svg">
<g filter="url(#filter0_d_4_262)">
<rect width="1005.74" height="1005.74" rx="94" transform="matrix(0.650722 -0.759316 0.650722 0.759316 1702.72 745)" fill="url(#paint0_linear_4_262)"/>
</g>
<g filter="url(#filter1_d_4_262)">
<rect width="1005.74" height="1005.74" rx="94" transform="matrix(0.650722 -0.759316 0.650722 0.759316 1339.36 745)" fill="url(#paint1_linear_4_262)"/>
</g>
<g filter="url(#filter2_d_4_262)">
<rect width="1005.74" height="1005.74" rx="94" transform="matrix(0.650722 -0.759316 0.650722 0.759316 976 745)" fill="url(#paint2_linear_4_262)"/>
</g>
<g filter="url(#filter3_d_4_262)">
<path d="M3882.65 52.7C3916.43 13.2805 3971.21 13.2806 4004.99 52.7L4537.11 673.624C4570.89 713.044 4570.89 776.956 4537.11 816.376L4004.99 1437.3C3971.21 1476.72 3916.43 1476.72 3882.65 1437.3L3762.14 1296.67L4173.75 816.376C4207.53 776.956 4207.53 713.043 4173.75 673.624L3762.14 193.324L3882.65 52.7Z" fill="url(#paint3_linear_4_262)"/>
</g>
<g filter="url(#filter4_d_4_262)">
<path d="M1240.65 52.7C1274.43 13.2805 1329.21 13.2806 1362.99 52.7L1895.11 673.624C1928.89 713.044 1928.89 776.956 1895.11 816.376L1362.99 1437.3C1329.21 1476.72 1274.43 1476.72 1240.65 1437.3L1120.14 1296.67L1531.75 816.376C1565.53 776.956 1565.53 713.043 1531.75 673.624L1120.14 193.324L1240.65 52.7Z" fill="url(#paint4_linear_4_262)"/>
</g>
<g filter="url(#filter5_d_4_262)">
<path d="M518.651 52.7C552.433 13.2805 607.205 13.2806 640.987 52.7L1173.11 673.624C1206.89 713.044 1206.89 776.956 1173.11 816.376L640.987 1437.3C607.205 1476.72 552.433 1476.72 518.651 1437.3L398.139 1296.67L809.748 816.376C843.53 776.956 843.53 713.043 809.748 673.624L398.139 193.324L518.651 52.7Z" fill="url(#paint5_linear_4_262)"/>
</g>
<g filter="url(#filter6_d_4_262)">
<path d="M3519.51 52.5654C3553.29 13.1458 3608.07 13.1449 3641.85 52.5645L4173.97 673.488C4207.75 712.908 4207.75 776.82 4173.97 816.24L3641.85 1437.16C3608.07 1476.58 3553.29 1476.58 3519.51 1437.16L3399 1296.54L3810.61 816.24C3844.39 776.82 3844.39 712.908 3810.61 673.488L3399 193.188L3519.51 52.5654Z" fill="url(#paint6_linear_4_262)"/>
</g>
<g filter="url(#filter7_d_4_262)">
<path d="M877.513 52.5647C911.295 13.1452 966.067 13.1451 999.849 52.5647L1531.97 673.489C1565.75 712.908 1565.75 776.821 1531.97 816.24L999.849 1437.16C966.067 1476.58 911.295 1476.58 877.513 1437.16L757 1296.54L1168.61 816.24C1202.39 776.821 1202.39 712.908 1168.61 673.489L757 193.189L877.513 52.5647Z" fill="url(#paint7_linear_4_262)"/>
</g>
<g filter="url(#filter8_d_4_262)">
<path d="M155.513 52.5647C189.295 13.1452 244.067 13.1451 277.849 52.5647L809.971 673.489C843.753 712.908 843.753 776.821 809.971 816.24L277.849 1437.16C244.067 1476.58 189.295 1476.58 155.513 1437.16L35 1296.54L446.609 816.24C480.391 776.821 480.391 712.908 446.609 673.489L35 193.189L155.513 52.5647Z" fill="url(#paint8_linear_4_262)"/>
</g>
<defs>
<filter id="filter0_d_4_262" x="1703.55" y="0.135498" width="1307.25" height="1513.73" filterUnits="userSpaceOnUse" color-interpolation-filters="sRGB">
<feFlood flood-opacity="0" result="BackgroundImageFix"/>
<feColorMatrix in="SourceAlpha" type="matrix" values="0 0 0 0 0 0 0 0 0 0 0 0 0 0 0 0 0 0 127 0" result="hardAlpha"/>
<feOffset dy="12"/>
<feGaussianBlur stdDeviation="17.5"/>
<feComposite in2="hardAlpha" operator="out"/>
<feColorMatrix type="matrix" values="0 0 0 0 0.0431373 0 0 0 0 0 0 0 0 0 0.286275 0 0 0 0.2 0"/>
<feBlend mode="normal" in2="BackgroundImageFix" result="effect1_dropShadow_4_262"/>
<feBlend mode="normal" in="SourceGraphic" in2="effect1_dropShadow_4_262" result="shape"/>
</filter>
<filter id="filter1_d_4_262" x="1340.19" y="0.135498" width="1307.25" height="1513.73" filterUnits="userSpaceOnUse" color-interpolation-filters="sRGB">
<feFlood flood-opacity="0" result="BackgroundImageFix"/>
<feColorMatrix in="SourceAlpha" type="matrix" values="0 0 0 0 0 0 0 0 0 0 0 0 0 0 0 0 0 0 127 0" result="hardAlpha"/>
<feOffset dy="12"/>
<feGaussianBlur stdDeviation="17.5"/>
<feComposite in2="hardAlpha" operator="out"/>
<feColorMatrix type="matrix" values="0 0 0 0 0.0431373 0 0 0 0 0 0 0 0 0 0.286275 0 0 0 0.2 0"/>
<feBlend mode="normal" in2="BackgroundImageFix" result="effect1_dropShadow_4_262"/>
<feBlend mode="normal" in="SourceGraphic" in2="effect1_dropShadow_4_262" result="shape"/>
</filter>
<filter id="filter2_d_4_262" x="976.831" y="0.135498" width="1307.25" height="1513.73" filterUnits="userSpaceOnUse" color-interpolation-filters="sRGB">
<feFlood flood-opacity="0" result="BackgroundImageFix"/>
<feColorMatrix in="SourceAlpha" type="matrix" values="0 0 0 0 0 0 0 0 0 0 0 0 0 0 0 0 0 0 127 0" result="hardAlpha"/>
<feOffset dy="12"/>
<feGaussianBlur stdDeviation="17.5"/>
<feComposite in2="hardAlpha" operator="out"/>
<feColorMatrix type="matrix" values="0 0 0 0 0.0431373 0 0 0 0 0 0 0 0 0 0.286275 0 0 0 0.2 0"/>
<feBlend mode="normal" in2="BackgroundImageFix" result="effect1_dropShadow_4_262"/>
<feBlend mode="normal" in="SourceGraphic" in2="effect1_dropShadow_4_262" result="shape"/>
</filter>
<filter id="filter3_d_4_262" x="3727.14" y="0.135498" width="870.307" height="1513.73" filterUnits="userSpaceOnUse" color-interpolation-filters="sRGB">
<feFlood flood-opacity="0" result="BackgroundImageFix"/>
<feColorMatrix in="SourceAlpha" type="matrix" values="0 0 0 0 0 0 0 0 0 0 0 0 0 0 0 0 0 0 127 0" result="hardAlpha"/>
<feOffset dy="12"/>
<feGaussianBlur stdDeviation="17.5"/>
<feComposite in2="hardAlpha" operator="out"/>
<feColorMatrix type="matrix" values="0 0 0 0 0.0431373 0 0 0 0 0 0 0 0 0 0.286275 0 0 0 0.2 0"/>
<feBlend mode="normal" in2="BackgroundImageFix" result="effect1_dropShadow_4_262"/>
<feBlend mode="normal" in="SourceGraphic" in2="effect1_dropShadow_4_262" result="shape"/>
</filter>
<filter id="filter4_d_4_262" x="1085.14" y="0.135498" width="870.307" height="1513.73" filterUnits="userSpaceOnUse" color-interpolation-filters="sRGB">
<feFlood flood-opacity="0" result="BackgroundImageFix"/>
<feColorMatrix in="SourceAlpha" type="matrix" values="0 0 0 0 0 0 0 0 0 0 0 0 0 0 0 0 0 0 127 0" result="hardAlpha"/>
<feOffset dy="12"/>
<feGaussianBlur stdDeviation="17.5"/>
<feComposite in2="hardAlpha" operator="out"/>
<feColorMatrix type="matrix" values="0 0 0 0 0.0431373 0 0 0 0 0 0 0 0 0 0.286275 0 0 0 0.2 0"/>
<feBlend mode="normal" in2="BackgroundImageFix" result="effect1_dropShadow_4_262"/>
<feBlend mode="normal" in="SourceGraphic" in2="effect1_dropShadow_4_262" result="shape"/>
</filter>
<filter id="filter5_d_4_262" x="363.139" y="0.135498" width="870.307" height="1513.73" filterUnits="userSpaceOnUse" color-interpolation-filters="sRGB">
<feFlood flood-opacity="0" result="BackgroundImageFix"/>
<feColorMatrix in="SourceAlpha" type="matrix" values="0 0 0 0 0 0 0 0 0 0 0 0 0 0 0 0 0 0 127 0" result="hardAlpha"/>
<feOffset dy="12"/>
<feGaussianBlur stdDeviation="17.5"/>
<feComposite in2="hardAlpha" operator="out"/>
<feColorMatrix type="matrix" values="0 0 0 0 0.0431373 0 0 0 0 0 0 0 0 0 0.286275 0 0 0 0.2 0"/>
<feBlend mode="normal" in2="BackgroundImageFix" result="effect1_dropShadow_4_262"/>
<feBlend mode="normal" in="SourceGraphic" in2="effect1_dropShadow_4_262" result="shape"/>
</filter>
<filter id="filter6_d_4_262" x="3364" y="0.000244141" width="870.307" height="1513.73" filterUnits="userSpaceOnUse" color-interpolation-filters="sRGB">
<feFlood flood-opacity="0" result="BackgroundImageFix"/>
<feColorMatrix in="SourceAlpha" type="matrix" values="0 0 0 0 0 0 0 0 0 0 0 0 0 0 0 0 0 0 127 0" result="hardAlpha"/>
<feOffset dy="12"/>
<feGaussianBlur stdDeviation="17.5"/>
<feComposite in2="hardAlpha" operator="out"/>
<feColorMatrix type="matrix" values="0 0 0 0 0.0431373 0 0 0 0 0 0 0 0 0 0.286275 0 0 0 0.2 0"/>
<feBlend mode="normal" in2="BackgroundImageFix" result="effect1_dropShadow_4_262"/>
<feBlend mode="normal" in="SourceGraphic" in2="effect1_dropShadow_4_262" result="shape"/>
</filter>
<filter id="filter7_d_4_262" x="722" y="0" width="870.307" height="1513.73" filterUnits="userSpaceOnUse" color-interpolation-filters="sRGB">
<feFlood flood-opacity="0" result="BackgroundImageFix"/>
<feColorMatrix in="SourceAlpha" type="matrix" values="0 0 0 0 0 0 0 0 0 0 0 0 0 0 0 0 0 0 127 0" result="hardAlpha"/>
<feOffset dy="12"/>
<feGaussianBlur stdDeviation="17.5"/>
<feComposite in2="hardAlpha" operator="out"/>
<feColorMatrix type="matrix" values="0 0 0 0 0.0431373 0 0 0 0 0 0 0 0 0 0.286275 0 0 0 0.2 0"/>
<feBlend mode="normal" in2="BackgroundImageFix" result="effect1_dropShadow_4_262"/>
<feBlend mode="normal" in="SourceGraphic" in2="effect1_dropShadow_4_262" result="shape"/>
</filter>
<filter id="filter8_d_4_262" x="0" y="0" width="870.307" height="1513.73" filterUnits="userSpaceOnUse" color-interpolation-filters="sRGB">
<feFlood flood-opacity="0" result="BackgroundImageFix"/>
<feColorMatrix in="SourceAlpha" type="matrix" values="0 0 0 0 0 0 0 0 0 0 0 0 0 0 0 0 0 0 127 0" result="hardAlpha"/>
<feOffset dy="12"/>
<feGaussianBlur stdDeviation="17.5"/>
<feComposite in2="hardAlpha" operator="out"/>
<feColorMatrix type="matrix" values="0 0 0 0 0.0431373 0 0 0 0 0 0 0 0 0 0.286275 0 0 0 0.2 0"/>
<feBlend mode="normal" in2="BackgroundImageFix" result="effect1_dropShadow_4_262"/>
<feBlend mode="normal" in="SourceGraphic" in2="effect1_dropShadow_4_262" result="shape"/>
</filter>
<linearGradient id="paint0_linear_4_262" x1="220.923" y1="226.849" x2="992.67" y2="998.596" gradientUnits="userSpaceOnUse">
<stop stop-color="#16006D"/>
<stop offset="1" stop-color="#6957FF"/>
</linearGradient>
<linearGradient id="paint1_linear_4_262" x1="220.923" y1="226.849" x2="992.67" y2="998.596" gradientUnits="userSpaceOnUse">
<stop stop-color="#16006D"/>
<stop offset="1" stop-color="#6957FF"/>
</linearGradient>
<linearGradient id="paint2_linear_4_262" x1="220.923" y1="226.849" x2="992.67" y2="998.596" gradientUnits="userSpaceOnUse">
<stop stop-color="#16006D"/>
<stop offset="1" stop-color="#6957FF"/>
</linearGradient>
<linearGradient id="paint3_linear_4_262" x1="3580.74" y1="749.5" x2="4585.12" y2="749.5" gradientUnits="userSpaceOnUse">
<stop stop-color="#16006D"/>
<stop offset="1" stop-color="#6957FF"/>
</linearGradient>
<linearGradient id="paint4_linear_4_262" x1="938.736" y1="749.5" x2="1943.12" y2="749.5" gradientUnits="userSpaceOnUse">
<stop stop-color="#16006D"/>
<stop offset="1" stop-color="#6957FF"/>
</linearGradient>
<linearGradient id="paint5_linear_4_262" x1="216.736" y1="749.5" x2="1221.12" y2="749.5" gradientUnits="userSpaceOnUse">
<stop stop-color="#16006D"/>
<stop offset="1" stop-color="#6957FF"/>
</linearGradient>
<linearGradient id="paint6_linear_4_262" x1="3217.6" y1="749.364" x2="4221.98" y2="749.364" gradientUnits="userSpaceOnUse">
<stop stop-color="#16006D"/>
<stop offset="1" stop-color="#6957FF"/>
</linearGradient>
<linearGradient id="paint7_linear_4_262" x1="575.597" y1="749.365" x2="1579.98" y2="749.365" gradientUnits="userSpaceOnUse">
<stop stop-color="#16006D"/>
<stop offset="1" stop-color="#6957FF"/>
</linearGradient>
<linearGradient id="paint8_linear_4_262" x1="-146.403" y1="749.365" x2="857.983" y2="749.365" gradientUnits="userSpaceOnUse">
<stop stop-color="#16006D"/>
<stop offset="1" stop-color="#6957FF"/>
</linearGradient>
</defs>
</svg>
